<?xml version="1.0" encoding="utf-8"?>
<!-- Generator: Adobe Illustrator 19.0.0, SVG Export Plug-In . SVG Version: 6.00 Build 0)  -->
<svg version="1.1" id="Layer_1" xmlns="http://www.w3.org/2000/svg" xmlns:xlink="http://www.w3.org/1999/xlink" x="0px" y="0px"
	 viewBox="0 0 224 243.5" style="enable-background:new 0 0 224 243.5;" xml:space="preserve">
<style type="text/css">
	.st0{clip-path:url(#SVGID_2_);}
	.st1{fill:#FFFFFF;}
	.st2{fill:#050606;}
</style>
<rect width="224" height="243.5"/>
<g>
	<g>
		<defs>
			<polygon id="SVGID_1_" points="112,23 95.8,23 95.8,20.4 89.5,20.4 89.5,108.7 84.7,117.3 84.7,124.7 78.9,127.5 70.5,143 
				153.5,143 145.1,127.5 139.3,124.7 139.3,117.3 134.5,108.7 134.5,20.4 128.2,20.4 128.2,23 			"/>
		</defs>
		<use xlink:href="#SVGID_1_"  style="overflow:visible;fill:#FFFFFF;"/>
		<clipPath id="SVGID_2_">
			<use xlink:href="#SVGID_1_"  style="overflow:visible;"/>
		</clipPath>
		<g class="st0">
			<rect x="64.1" y="101.3" class="st1" width="95.9" height="40.9"/>
			<rect x="78.4" y="60.5" class="st1" width="67.1" height="40.9"/>
			<rect x="78.4" y="19.6" class="st1" width="67.1" height="40.9"/>
		</g>
	</g>
	<rect x="108.2" y="33.4" class="st2" width="8.7" height="13.1"/>
	<rect x="108.2" y="59.5" class="st2" width="8.7" height="13.1"/>
	<rect x="108.2" y="88.4" class="st2" width="8.7" height="13.1"/>
	<rect x="108.2" y="119.6" class="st2" width="8.7" height="18.1"/>
</g>
<g>
	<path class="st1" d="M39.3,195.3c0-4.7,1.7-8.6,5-12c3.3-3.3,7.3-4.9,12-4.9c4.8,0,8.8,1.6,12.1,4.9c3.3,3.3,5,7.3,5,12
		c0,4.6-1.7,8.6-5,11.9c-3.3,3.3-7.3,4.9-12.1,4.9c-4.7,0-8.7-1.6-12-4.9C41,203.8,39.3,199.9,39.3,195.3z M47.1,167.8
		c0.9-1,2-1.4,3.5-1.4s2.6,0.5,3.4,1.4c0.8,0.8,1.2,1.8,1.2,3c0,1.2-0.4,2.2-1.2,2.9c-0.8,0.9-1.9,1.3-3.4,1.3
		c-1.5,0-2.6-0.5-3.5-1.4c-0.7-0.8-1.1-1.8-1.1-2.9C46,169.7,46.4,168.7,47.1,167.8z M48,195.3c0,2.5,0.8,4.7,2.4,6.5
		c1.6,1.7,3.6,2.6,5.9,2.6c2.3,0,4.3-0.9,6-2.6c1.6-1.8,2.5-3.9,2.5-6.5c0-2.6-0.8-4.7-2.5-6.5c-1.6-1.7-3.6-2.6-6-2.6
		c-2.3,0-4.3,0.9-5.9,2.6C48.8,190.5,48,192.7,48,195.3z M57.5,170.9c0-1.2,0.4-2.2,1.1-3c0.8-1,2-1.4,3.5-1.4
		c1.5,0,2.6,0.5,3.5,1.4c0.7,0.8,1.1,1.8,1.1,3c0,1.2-0.4,2.2-1.1,2.9c-0.8,0.9-2,1.3-3.4,1.3c-1.5,0-2.7-0.5-3.5-1.4
		C57.9,173,57.5,172.1,57.5,170.9z"/>
	<path class="st1" d="M85.9,183.3c3.3-3.3,7.3-4.9,12-4.9c4.7,0,8.7,1.6,12,4.9c3.3,3.3,5,7.3,5,11.9l0.1,11.5c0,0.5-0.1,1-0.1,1.4
		c0,1.3-0.2,2.2-0.4,2.9c-1,3.7-3.3,6.7-6.9,9.1c-4.3,3-10.4,4.5-18.2,4.5v-7.8c5.3,0,9.4-0.7,12.2-2c2.4-1.1,3.7-2,3.9-2.7H98
		c-4.7,0-8.7-1.6-12-4.9c-3.3-3.3-5-7.3-5-12C81,190.6,82.6,186.6,85.9,183.3z M92,201.7c1.6,1.7,3.6,2.6,5.9,2.6h8.4v-9.1
		c0-2.5-0.8-4.7-2.5-6.5c-1.6-1.7-3.6-2.6-5.9-2.6c-2.3,0-4.3,0.9-5.9,2.6c-1.6,1.8-2.5,3.9-2.5,6.5C89.6,197.8,90.4,199.9,92,201.7
		z"/>
	<path class="st1" d="M132.8,162.7v49.3h-8.7v-49.3H132.8z"/>
	<path class="st1" d="M145.1,205v-24.8h8.7v13c0,3.3,0.5,5.9,1.5,7.7c1.2,2.3,3.2,3.4,6,3.4h4v7.8h-4.2c-4.5-0.1-7-0.5-7.5-1.3
		c-0.2,6-5.2,12-15.1,18l-4.1-6.8C141.5,217.6,145.1,212,145.1,205z"/>
	<path class="st1" d="M161.1,204.3h9.3v-24h8.7v31.8h-18.1V204.3z M170.3,216c0.9-1,2.1-1.5,3.7-1.5c1.6,0,2.9,0.5,3.7,1.5
		c0.8,0.8,1.2,1.9,1.2,3.2c0,1.3-0.4,2.3-1.2,3.1c-0.8,1-2.1,1.4-3.7,1.4c-1.5,0-2.8-0.5-3.6-1.4c-0.8-0.8-1.2-1.9-1.2-3.1
		C169.1,218,169.5,216.9,170.3,216z"/>
</g>
</svg>
